<svg width="25" height="24" viewBox="0 0 25 24" fill="none" xmlns="http://www.w3.org/2000/svg">
<path d="M20.5 9.00049H11.5C10.3954 9.00049 9.5 9.89592 9.5 11.0005V20.0005C9.5 21.1051 10.3954 22.0005 11.5 22.0005H20.5C21.6046 22.0005 22.5 21.1051 22.5 20.0005V11.0005C22.5 9.89592 21.6046 9.00049 20.5 9.00049Z" stroke="black" stroke-width="2" stroke-linecap="round" stroke-linejoin="round"/>
<path d="M5.5 15.0005H4.5C3.96957 15.0005 3.46086 14.7898 3.08579 14.4147C2.71071 14.0396 2.5 13.5309 2.5 13.0005V4.00049C2.5 3.47006 2.71071 2.96135 3.08579 2.58627C3.46086 2.2112 3.96957 2.00049 4.5 2.00049H13.5C14.0304 2.00049 14.5391 2.2112 14.9142 2.58627C15.2893 2.96135 15.5 3.47006 15.5 4.00049V5.00049" stroke="black" stroke-width="2" stroke-linecap="round" stroke-linejoin="round"/>
</svg>
