<svg width="500" height="380" viewBox="0 0 500 380" fill="none" xmlns="http://www.w3.org/2000/svg">
<rect width="500" height="380" fill="black"/>
<path d="M140.45 156.744L195.947 222H215.47V142H200.712V207L146.292 142H126V222H140.45V156.744Z" fill="white"/>
<path d="M209.004 222H224.992L248.973 182.256L225.299 142H209.004L232.371 182.385L209.004 222ZM279.796 142L255.968 182.256L280.103 222H296.091L272.571 182.385L296.091 142H279.796Z" fill="white"/>
<path d="M289.218 142V153.41H323.653V222H338.257V153.41H373V142H289.218Z" fill="white"/>
<path d="M140.45 156.744L195.947 222H215.47V142H200.712V207L146.292 142H126V222H140.45V156.744Z" stroke="white" stroke-width="11"/>
<path d="M209.004 222H224.992L248.973 182.256L225.299 142H209.004L232.371 182.385L209.004 222ZM279.796 142L255.968 182.256L280.103 222H296.091L272.571 182.385L296.091 142H279.796Z" stroke="white" stroke-width="11"/>
<path d="M289.218 142V153.41H323.653V222H338.257V153.41H373V142H289.218Z" stroke="white" stroke-width="11"/>
<rect opacity="0.3" x="195" y="136" width="26" height="92" fill="#67F2EE"/>
<g filter="url(#filter0_f_11_48)">
<path d="M229.023 136H195L225.484 182L195 228H229.023L260 182L229.023 136Z" fill="#00F0FF"/>
</g>
<path d="M229.023 136H195L225.484 182L195 228H229.023L260 182L229.023 136Z" fill="#00FFF0" stroke="#85FBF4"/>
<rect x="146.159" y="219.523" width="11.5386" height="11.5386" transform="rotate(45 146.159 219.523)" fill="black"/>
<rect x="344.159" y="220" width="11.5386" height="11.5386" transform="rotate(45 344.159 220)" fill="black"/>
<rect x="379.159" y="151" width="11.5386" height="11.5386" transform="rotate(45 379.159 151)" fill="black"/>
<defs>
<filter id="filter0_f_11_48" x="180" y="121" width="95" height="122" filterUnits="userSpaceOnUse" color-interpolation-filters="sRGB">
<feFlood flood-opacity="0" result="BackgroundImageFix"/>
<feBlend mode="normal" in="SourceGraphic" in2="BackgroundImageFix" result="shape"/>
<feGaussianBlur stdDeviation="7.5" result="effect1_foregroundBlur_11_48"/>
</filter>
</defs>
</svg>
